<svg width="240" height="33" viewBox="0 0 240 33" fill="none" xmlns="http://www.w3.org/2000/svg">
<path d="M14.4689 28.9378C22.4599 28.9378 28.9378 22.4599 28.9378 14.4689C28.9378 6.47795 22.4599 0 14.4689 0C6.47795 0 0 6.47795 0 14.4689C0 22.4599 6.47795 28.9378 14.4689 28.9378Z" fill="#FC8001"/>
<path d="M14.4957 0.805122C12.7457 0.803151 11.0162 1.18152 9.4269 1.91405C7.83758 2.64657 6.42645 3.71575 5.29119 5.04756C4.15593 6.37936 3.32367 7.94198 2.85203 9.62723C2.38039 11.3125 2.28063 13.0801 2.55966 14.8077C4.12295 10.725 8.39016 7.793 13.4155 7.793C17.6123 7.793 21.2823 9.83603 23.2885 12.8888H23.3254C24.4947 12.8586 25.635 13.2558 26.5325 14.0059C26.566 13.6403 26.5828 13.2713 26.5828 12.8955C26.5828 9.69252 25.3104 6.62068 23.0455 4.35581C20.7807 2.09093 17.7088 0.818542 14.5058 0.818542" fill="#FDCC01"/>
<path d="M26.5324 14.0059C25.6349 13.2558 24.4947 12.8586 23.3253 12.8888H23.2884C19.7324 12.9123 15.9919 16.002 14.9016 19.813C14.3313 21.8426 14.6332 23.6675 15.5726 24.9323C15.2136 24.9658 14.8446 24.9859 14.4756 24.9859C11.6001 24.9881 8.81812 23.9643 6.6301 22.0985C4.44208 20.2327 2.99157 17.6475 2.53948 14.8077C2.12399 15.9051 1.91362 17.0695 1.91886 18.2429C1.93079 19.6775 2.25193 21.0925 2.86039 22.3916C3.46885 23.6908 4.35031 24.8434 5.44467 25.7709C7.16136 27.1383 9.16643 28.0974 11.3083 28.576C13.4502 29.0545 15.6728 29.0399 17.8082 28.5332C19.9436 28.0265 21.9358 27.041 23.6344 25.6511C25.3329 24.2613 26.6933 22.5036 27.6127 20.5107C27.6965 20.2826 27.7737 20.0478 27.8408 19.813C28.5117 17.3808 27.9548 15.2405 26.5324 14.0059Z" fill="#FD0024"/>
<path d="M64.0953 17.5921L65.0313 14.1032C65.0766 13.9328 65.0763 13.7535 65.0305 13.5832C64.9847 13.413 64.8949 13.2577 64.7703 13.133C64.6456 13.0084 64.4903 12.9186 64.3201 12.8728C64.1498 12.827 63.9705 12.8267 63.8001 12.872L60.3112 13.8046C60.1419 13.8512 59.9878 13.9412 59.864 14.0657C59.7403 14.1902 59.6513 14.345 59.6058 14.5145C59.5604 14.6841 59.5601 14.8626 59.605 15.0323C59.6498 15.202 59.7383 15.3571 59.8616 15.482L62.4146 18.0349C62.539 18.1592 62.6938 18.2486 62.8635 18.2944C63.0333 18.3402 63.212 18.3407 63.382 18.2959C63.552 18.2511 63.7073 18.1626 63.8325 18.0391C63.9576 17.9156 64.0482 17.7615 64.0953 17.5921Z" fill="#FDCC01"/>
<path d="M105.073 13.325V25.2409C105.073 25.2996 105.05 25.356 105.008 25.3975C104.967 25.439 104.91 25.4623 104.852 25.4623H102.067C102.009 25.4615 101.954 25.4377 101.913 25.3963C101.872 25.3549 101.849 25.2991 101.849 25.2409V14.3683C101.849 10.9263 99.9606 8.90344 96.7199 8.90344C93.6336 8.90344 91.2148 11.0471 91.2148 14.4454V25.2409C91.2148 25.2991 91.1919 25.3549 91.1511 25.3963C91.1103 25.4377 91.0549 25.4615 90.9967 25.4623H88.2123C88.1542 25.4615 88.0987 25.4377 88.0579 25.3963C88.0171 25.3549 87.9943 25.2991 87.9943 25.2409V14.3683C87.9943 10.9129 86.1223 8.90009 82.8649 8.90009C79.8457 8.90009 77.3397 10.9632 77.3397 14.4421V25.2376C77.3397 25.2957 77.3168 25.3515 77.276 25.393C77.2352 25.4344 77.1798 25.4581 77.1216 25.459H74.3573C74.2989 25.4581 74.2431 25.4345 74.2017 25.3932C74.1604 25.3518 74.1368 25.296 74.1359 25.2376V6.45114C74.1368 6.393 74.1605 6.33754 74.2019 6.29674C74.2434 6.25594 74.2992 6.23308 74.3573 6.23308H77.1015C77.1593 6.23308 77.2148 6.25606 77.2557 6.29695C77.2966 6.33784 77.3196 6.39331 77.3196 6.45114V8.0547C77.3211 8.09838 77.3354 8.14064 77.3609 8.17616C77.3864 8.21168 77.4218 8.23886 77.4627 8.25429C77.5036 8.26971 77.5481 8.27269 77.5907 8.26284C77.6333 8.25299 77.672 8.23076 77.702 8.19895C79.2351 6.45785 81.4425 5.85065 83.4352 5.85065C86.4545 5.85065 88.8531 7.13215 90.1446 9.27582C90.1639 9.30851 90.1914 9.33561 90.2243 9.35443C90.2573 9.37326 90.2946 9.38317 90.3325 9.38317C90.3705 9.38317 90.4078 9.37326 90.4407 9.35443C90.4737 9.33561 90.5011 9.30851 90.5204 9.27582C92.0937 6.70275 94.8547 5.85065 97.2902 5.85065C101.91 5.85736 105.073 8.84306 105.073 13.325Z" fill="white"/>
<path d="M127.65 15.586C127.65 21.2253 123.541 25.3147 118.314 25.3147C115.607 25.3147 113.547 24.3553 112.105 22.8423C112.074 22.8106 112.035 22.7887 111.992 22.7796C111.949 22.7705 111.905 22.7745 111.864 22.7912C111.824 22.8079 111.789 22.8364 111.765 22.873C111.741 22.9097 111.728 22.9528 111.729 22.9966V32.5643C111.729 32.6221 111.706 32.6776 111.665 32.7185C111.624 32.7594 111.569 32.7823 111.511 32.7823H108.747C108.688 32.7824 108.633 32.7595 108.591 32.7187C108.55 32.6779 108.526 32.6224 108.525 32.5643V6.46792C108.526 6.40978 108.55 6.35432 108.591 6.31352C108.633 6.27272 108.688 6.24986 108.747 6.24986H111.511C111.569 6.24986 111.624 6.27284 111.665 6.31373C111.706 6.35462 111.729 6.41009 111.729 6.46792V8.17547C111.728 8.21934 111.741 8.26241 111.765 8.29906C111.789 8.33571 111.824 8.36423 111.864 8.3809C111.905 8.39757 111.949 8.40161 111.992 8.39249C112.035 8.38337 112.074 8.36152 112.105 8.32979C113.547 6.81681 115.607 5.85736 118.314 5.85736C123.541 5.85736 127.65 9.94676 127.65 15.586ZM111.548 15.586C111.548 19.4171 114.181 22.2955 117.955 22.2955C121.827 22.2955 124.363 19.2762 124.363 15.586C124.363 11.8959 121.766 8.87661 117.955 8.87661C114.144 8.87661 111.534 11.7717 111.534 15.586H111.548Z" fill="white"/>
<path d="M163.952 10.195C163.938 10.2209 163.918 10.2436 163.895 10.2617C163.872 10.2798 163.845 10.2929 163.816 10.3002C163.787 10.3074 163.758 10.3087 163.728 10.3038C163.699 10.299 163.671 10.2882 163.647 10.2721C161.879 9.24058 159.873 8.68787 157.826 8.66857C155.27 8.66857 153.619 9.74879 153.619 11.4396C153.619 12.9324 154.961 13.6201 157.236 13.8952L159.4 14.1703C163.368 14.7004 165.706 16.371 165.706 19.4574C165.706 23.0134 162.523 25.3147 157.434 25.3147C155.186 25.3147 152.167 24.788 149.738 23.0402C149.693 23.0066 149.662 22.9573 149.651 22.902C149.641 22.8467 149.651 22.7895 149.681 22.7416L150.939 20.7288C150.954 20.7027 150.975 20.6802 151 20.6628C151.025 20.6454 151.053 20.6335 151.083 20.6277C151.113 20.622 151.143 20.6227 151.173 20.6297C151.203 20.6367 151.23 20.6499 151.254 20.6684C152.63 21.6748 154.465 22.5101 157.45 22.5101C160.517 22.5101 162.405 21.5037 162.405 19.662C162.405 18.2866 161.188 17.421 158.651 17.1057L156.491 16.8507C152.304 16.3408 150.278 14.4521 150.278 11.6241C150.278 8.0446 153.247 5.88416 157.786 5.88416C160.644 5.88416 163.261 6.62219 165.066 7.79299C165.112 7.82499 165.144 7.87275 165.157 7.92718C165.17 7.98161 165.163 8.03892 165.136 8.08821L163.952 10.195Z" fill="white"/>
<path d="M180.35 10.195C180.335 10.221 180.316 10.2438 180.292 10.2619C180.268 10.2801 180.241 10.2932 180.212 10.3004C180.183 10.3076 180.153 10.3088 180.124 10.304C180.094 10.2991 180.066 10.2883 180.041 10.2721C178.274 9.23942 176.267 8.68663 174.221 8.66857C171.664 8.66857 170.014 9.74879 170.014 11.4396C170.014 12.9324 171.356 13.6201 173.63 13.8952L175.794 14.1703C179.763 14.7004 182.101 16.371 182.101 19.4574C182.101 23.0134 178.917 25.3147 173.828 25.3147C171.58 25.3147 168.561 24.788 166.132 23.0402C166.087 23.0066 166.056 22.9573 166.046 22.902C166.035 22.8467 166.046 22.7895 166.075 22.7416L167.333 20.7288C167.349 20.7027 167.37 20.6802 167.395 20.6628C167.419 20.6454 167.448 20.6335 167.478 20.6277C167.507 20.622 167.538 20.6227 167.568 20.6297C167.597 20.6367 167.625 20.6499 167.649 20.6684C169.024 21.6748 170.863 22.5101 173.848 22.5101C176.915 22.5101 178.8 21.5037 178.8 19.662C178.8 18.2866 177.582 17.421 175.046 17.1057L172.885 16.8507C168.699 16.3408 166.673 14.4521 166.673 11.6241C166.673 8.0446 169.641 5.88416 174.18 5.88416C177.039 5.88416 179.655 6.62219 181.46 7.79299C181.507 7.82449 181.54 7.87227 181.553 7.92691C181.566 7.98155 181.558 8.0391 181.531 8.08821L180.35 10.195Z" fill="white"/>
<path d="M48.4053 20.3934C48.3651 20.3536 48.3108 20.3313 48.2543 20.3313C48.1978 20.3313 48.1435 20.3536 48.1033 20.3934C45.3424 23.0033 41.4442 22.9262 38.8544 20.3363C36.2008 17.6827 36.1706 13.694 38.9517 10.9263C41.6623 8.21572 45.5403 8.18888 48.1939 10.6949C48.2136 10.7149 48.2371 10.7309 48.263 10.7418C48.2889 10.7527 48.3168 10.7583 48.3449 10.7583C48.373 10.7583 48.4008 10.7527 48.4267 10.7418C48.4527 10.7309 48.4762 10.7149 48.4958 10.6949L50.3275 8.86318C50.3485 8.8423 50.3652 8.81747 50.3765 8.79012C50.3879 8.76278 50.3938 8.73345 50.3938 8.70384C50.3938 8.67422 50.3879 8.6449 50.3765 8.61755C50.3652 8.5902 50.3485 8.56537 50.3275 8.54449C46.3287 4.70333 40.5015 4.74023 36.6335 8.60822C32.7152 12.5265 32.7286 18.461 36.7308 22.4632C40.676 26.4084 46.5098 26.4889 50.4315 22.7383C50.4547 22.7169 50.4732 22.691 50.4858 22.6621C50.4985 22.6333 50.505 22.6021 50.505 22.5706C50.505 22.539 50.4985 22.5079 50.4858 22.479C50.4732 22.4501 50.4547 22.4242 50.4315 22.4028L48.4053 20.3934Z" fill="white"/>
<path d="M55.2254 15.5793C55.2821 15.5785 55.3362 15.5556 55.3763 15.5155C55.4163 15.4754 55.4392 15.4213 55.4401 15.3646C55.5475 11.5704 58.3587 8.86654 62.0221 8.86654C65.776 8.86654 68.6074 11.6778 68.6074 15.576C68.6074 19.4104 65.8833 22.168 62.2334 22.2854C62.1762 22.2863 62.1216 22.3097 62.0814 22.3505C62.0412 22.3913 62.0187 22.4462 62.0187 22.5035V25.09C62.0187 25.1496 62.0424 25.2068 62.0845 25.2489C62.1267 25.2911 62.1839 25.3147 62.2435 25.3147C67.7922 25.204 71.8849 21.0542 71.8849 15.586C71.8849 10.0407 67.6781 5.85736 62.0187 5.85736C56.4398 5.85736 52.2531 9.92328 52.1357 15.3479C52.1353 15.3777 52.1407 15.4073 52.1518 15.4349C52.1629 15.4626 52.1794 15.4877 52.2003 15.509C52.2213 15.5302 52.2462 15.5471 52.2737 15.5586C52.3012 15.5701 52.3307 15.576 52.3605 15.576L55.2254 15.5793Z" fill="white"/>
<path d="M147.551 6.24981H144.786C144.728 6.25069 144.673 6.27441 144.632 6.31584C144.591 6.35726 144.568 6.41308 144.568 6.47123V8.14859C142.77 6.55855 140.444 5.69406 138.043 5.72312C132.501 5.72312 128.315 9.92994 128.315 15.5894C128.315 21.1683 132.384 25.3516 137.809 25.4724C137.868 25.4724 137.925 25.4487 137.967 25.4065C138.01 25.3644 138.033 25.3072 138.033 25.2476V22.386C138.034 22.3578 138.029 22.3298 138.018 22.3036C138.008 22.2774 137.992 22.2535 137.973 22.2332C137.953 22.213 137.93 22.1968 137.904 22.1856C137.878 22.1744 137.85 22.1684 137.822 22.168C134.028 22.064 131.324 19.2527 131.324 15.5894C131.324 11.8354 134.132 9.00404 138.033 9.00404C141.368 9.00404 144.558 11.3523 144.558 13.9959V25.2509C144.558 25.3091 144.581 25.3649 144.622 25.4063C144.663 25.4478 144.718 25.4715 144.776 25.4724H147.541C147.599 25.4715 147.655 25.4479 147.696 25.4066C147.738 25.3652 147.761 25.3094 147.762 25.2509V6.47123C147.761 6.41445 147.739 6.36006 147.7 6.31898C147.661 6.27791 147.607 6.2532 147.551 6.24981Z" fill="white"/>
<path d="M239.316 18.5449C237.045 18.5449 235.998 17.3808 235.998 15.113V1.13391H229.033V11.5134C228.233 9.79609 226.959 8.34291 225.362 7.3247C223.764 6.30649 221.909 5.76559 220.014 5.76559C218.12 5.76559 216.265 6.30649 214.667 7.3247C213.069 8.34291 211.795 9.79609 210.995 11.5134V5.97142H204.131V15.7404C204.131 17.5016 203.205 18.6959 201.652 18.6959C200.099 18.6959 199.176 17.5016 199.176 15.7404V5.97142H192.215V15.8276C192.215 21.8661 195.906 25.6536 201.652 25.6536C206.258 25.6536 209.543 23.1006 210.619 18.9609C211.292 20.9023 212.549 22.588 214.217 23.7865C215.886 24.985 217.885 25.6375 219.94 25.6544C221.994 25.6713 224.004 25.0518 225.692 23.881C227.38 22.7101 228.665 21.0453 229.369 19.1152C230.375 23.5434 233.73 25.506 238.239 25.506H240V18.5449H239.316ZM220.023 18.6959C219.431 18.6965 218.853 18.5217 218.361 18.1935C217.869 17.8653 217.485 17.3985 217.258 16.8522C217.032 16.3059 216.972 15.7046 217.088 15.1245C217.203 14.5444 217.488 14.0115 217.906 13.5932C218.324 13.175 218.857 12.8903 219.437 12.775C220.017 12.6598 220.618 12.7193 221.165 12.9459C221.711 13.1726 222.178 13.5562 222.506 14.0483C222.834 14.5403 223.009 15.1187 223.008 15.7102C223.006 16.5012 222.69 17.2591 222.131 17.8184C221.572 18.3778 220.814 18.6932 220.023 18.6959Z" fill="white"/>
<path d="M186.545 25.3782C186.104 25.3782 185.724 25.2199 185.408 24.9035C185.092 24.587 184.933 24.2079 184.933 23.766C184.933 23.3242 185.092 22.9451 185.408 22.6286C185.724 22.3121 186.104 22.1539 186.545 22.1539C186.987 22.1539 187.366 22.3121 187.683 22.6286C187.999 22.9451 188.158 23.3242 188.158 23.766C188.158 24.0586 188.083 24.3273 187.934 24.5721C187.79 24.8169 187.596 25.0139 187.351 25.1632C187.113 25.3065 186.844 25.3782 186.545 25.3782Z" fill="white"/>
</svg>
